# xmcd
#
# Track frame offsets:
#	150
#	17448
#	32399
#	65327
#	81116
#	95475
#	116508
#	126631
#	137647
#	156402
#	171171
#	184568
#	197234
#	212472
#	228883
#	269038
#
# Disc length: 4411 seconds
#
# Revision: 0
# Processed by: cddbd v1.5.1PL2 Copyright (c) Steve Scherf et al.
# Submitted via: EasyCDDAExtractor 9.1.3.1
#
DISCID=d9113910
DTITLE=Willie Nelson - The Complete Atlantic Sessions - Disc 3 (Live At The Te
DTITLE=xas Opry House)
DYEAR=2006
DGENRE=Country
TTITLE0=Whiskey River
TTITLE1=Me and Paul
TTITLE2=Medley: Funny How Time Slips Away/Crazy/Night Life
TTITLE3=Stay All Night (Stay A Little Longer)
TTITLE4=Walkin'
TTITLE5=Bloody Mary Morning/Take Me Back To Tulsa
TTITLE6=The Party's Over
TTITLE7=Truck Drivin' Man
TTITLE8=She Thinks I Still Care
TTITLE9=Good Hearted Woman
TTITLE10=Sister's Comin' Home
TTITLE11=Shotgun Willie (Bonus, Prev. Unrel.)
TTITLE12=You Look Like The Devil (Bonus, Prev. Unrel.)
TTITLE13=Bloody Mary Morning (Bonus, Prev. Unrel., Electric Guitar Version)
TTITLE14=Medley: Funny How Time Slips Away/Crazy/Night Life (Bonus, Prev. Unre
TTITLE14=l.)
TTITLE15=Willies After Hours (Bonus, Prev. Unrel., Studio Track)
EXTD=
EXTT0=
EXTT1=
EXTT2=
EXTT3=
EXTT4=
EXTT5=
EXTT6=
EXTT7=
EXTT8=
EXTT9=
EXTT10=
EXTT11=
EXTT12=
EXTT13=
EXTT14=
EXTT15=
PLAYORDER=
